{
  "accessors": [
    {
      "bufferView": 2,
      "componentType": 5126,
      "count": 17473,
      "max": [
        0.26252683997154236,
        0.21802012622356415,
        -0.11066098511219025
      ],
      "min": [
        0.05164392665028572,
        -0.06308650225400925,
        -0.36019042134284973
      ],
      "type": "VEC3"
    },
    {
      "bufferView": 2,
      "byteOffset": 209676,
      "componentType": 5126,
      "count": 17473,
      "max": [
        0.9999545812606812,
        0.9999518990516663,
        0.9999945163726807
      ],
      "min": [
        -0.9999936819076538,
        -0.9999619126319885,
        -0.9999642372131348
      ],
      "type": "VEC3"
    },
    {
      "bufferView": 1,
      "componentType": 5126,
      "count": 17473,
      "max": [
        0.9997420310974121,
        0.9999697208404541
      ],
      "min": [
        3.153799116262235e-05,
        0.00014023212133906782
      ],
      "type": "VEC2"
    },
    {
      "bufferView": 1,
      "byteOffset": 139784,
      "componentType": 5126,
      "count": 17473,
      "max": [
        0.9997420310974121,
        0.9999697208404541
      ],
      "min": [
        3.153799116262235e-05,
        0.00014023212133906782
      ],
      "type": "VEC2"
    },
    {
      "bufferView": 1,
      "byteOffset": 279568,
      "componentType": 5126,
      "count": 17473,
      "max": [
        0.9997420310974121,
        0.9999697208404541
      ],
      "min": [
        3.153799116262235e-05,
        0.00014023212133906782
      ],
      "type": "VEC2"
    },
    {
      "bufferView": 0,
      "componentType": 5125,
      "count": 53136,
      "type": "SCALAR"
    }
  ],
  "asset": {
    "extras": {
      "author": "alban (https://sketchfab.com/alban)",
      "license": "CC-BY-4.0 (http://creativecommons.org/licenses/by/4.0/)",
      "source": "https://sketchfab.com/3d-models/bonsai-tree-85a06b2cfe434a4ebed80d932090a75c",
      "title": "Bonsai tree"
    },
    "generator": "Sketchfab-12.63.0",
    "version": "2.0"
  },
  "bufferViews": [
    {
      "buffer": 0,
      "byteLength": 212544,
      "name": "floatBufferViews",
      "target": 34963
    },
    {
      "buffer": 0,
      "byteLength": 419352,
      "byteOffset": 212544,
      "byteStride": 8,
      "name": "floatBufferViews",
      "target": 34962
    },
    {
      "buffer": 0,
      "byteLength": 419352,
      "byteOffset": 631896,
      "byteStride": 12,
      "name": "floatBufferViews",
      "target": 34962
    }
  ],
  "buffers": [
    {
      "byteLength": 1051248,
      "uri": "adult_plant_2.bin"
    }
  ],
  "extensionsUsed": [
    "KHR_materials_unlit"
  ],
  "images": [
    {
      "uri": "textures/material_0_baseColor.jpeg"
    }
  ],
  "materials": [
    {
      "extensions": {
        "KHR_materials_unlit": {}
      },
      "name": "material_0",
      "pbrMetallicRoughness": {
        "baseColorTexture": {
          "index": 0
        },
        "metallicFactor": 0.0
      }
    }
  ],
  "meshes": [
    {
      "name": "Object_0",
      "primitives": [
        {
          "attributes": {
            "NORMAL": 1,
            "POSITION": 0,
            "TEXCOORD_0": 2,
            "TEXCOORD_1": 3,
            "TEXCOORD_2": 4
          },
          "indices": 5,
          "material": 0,
          "mode": 4
        }
      ]
    }
  ],
  "nodes": [
    {
      "children": [
        1
      ],
      "matrix": [
        1.0,
        0.0,
        0.0,
        0.0,
        0.0,
        2.220446049250313e-16,
        -1.0,
        0.0,
        0.0,
        1.0,
        2.220446049250313e-16,
        0.0,
        0.0,
        0.0,
        0.0,
        1.0
      ],
      "name": "Sketchfab_model"
    },
    {
      "children": [
        2
      ],
      "name": "root"
    },
    {
      "children": [
        3
      ],
      "matrix": [
        1.0,
        0.0,
        0.0,
        0.0,
        0.0,
        2.220446049250313e-16,
        1.0,
        0.0,
        0.0,
        -1.0,
        2.220446049250313e-16,
        0.0,
        0.0,
        0.0,
        0.0,
        1.0
      ],
      "name": "GLTF_SceneRootNode"
    },
    {
      "children": [
        4
      ],
      "name": "_0"
    },
    {
      "mesh": 0,
      "name": "Object_4"
    }
  ],
  "samplers": [
    {
      "magFilter": 9729,
      "minFilter": 9987,
      "wrapS": 10497,
      "wrapT": 10497
    }
  ],
  "scene": 0,
  "scenes": [
    {
      "name": "Sketchfab_Scene",
      "nodes": [
        0
      ]
    }
  ],
  "textures": [
    {
      "sampler": 0,
      "source": 0
    }
  ]
}
