{
  "accessors": [
    {
      "bufferView": 2,
      "componentType": 5126,
      "count": 3754,
      "max": [
        1.3702785968780518,
        0.005000000353902578,
        1.2892295122146606
      ],
      "min": [
        -1.361090898513794,
        0.0,
        -1.3068513870239258
      ],
      "type": "VEC3"
    },
    {
      "bufferView": 2,
      "byteOffset": 45048,
      "componentType": 5126,
      "count": 3754,
      "max": [
        0.9999904036521912,
        1.0,
        0.9999942183494568
      ],
      "min": [
        -1.0,
        -1.0,
        -1.0
      ],
      "type": "VEC3"
    },
    {
      "bufferView": 1,
      "componentType": 5126,
      "count": 3754,
      "max": [
        0.99466872215271,
        0.9651239514350891
      ],
      "min": [
        0.011288553476333618,
        0.03023531474173069
      ],
      "type": "VEC2"
    },
    {
      "bufferView": 0,
      "componentType": 5125,
      "count": 5880,
      "type": "SCALAR"
    },
    {
      "bufferView": 2,
      "byteOffset": 90096,
      "componentType": 5126,
      "count": 65532,
      "max": [
        0.05479569360613823,
        0.008550025522708893,
        1.3110730648040771
      ],
      "min": [
        -0.04785062372684479,
        -0.0094060143455863,
        -1.2857884168624878
      ],
      "type": "VEC3"
    },
    {
      "bufferView": 2,
      "byteOffset": 876480,
      "componentType": 5126,
      "count": 65532,
      "max": [
        0.999901294708252,
        0.9999916553497314,
        0.9999897480010986
      ],
      "min": [
        -0.9999786615371704,
        -0.9999963045120239,
        -0.999985933303833
      ],
      "type": "VEC3"
    },
    {
      "bufferView": 1,
      "byteOffset": 30032,
      "componentType": 5126,
      "count": 65532,
      "max": [
        0.10000000149011612,
        0.09999990463256836
      ],
      "min": [
        0.0,
        0.0
      ],
      "type": "VEC2"
    },
    {
      "bufferView": 0,
      "byteOffset": 23520,
      "componentType": 5125,
      "count": 381315,
      "type": "SCALAR"
    },
    {
      "bufferView": 2,
      "byteOffset": 1662864,
      "componentType": 5126,
      "count": 65532,
      "max": [
        0.05477048456668854,
        0.008130867965519428,
        1.3077341318130493
      ],
      "min": [
        -0.04644780978560448,
        -0.009882751852273941,
        -1.2895207405090332
      ],
      "type": "VEC3"
    },
    {
      "bufferView": 2,
      "byteOffset": 2449248,
      "componentType": 5126,
      "count": 65532,
      "max": [
        0.9999794960021973,
        0.9999939203262329,
        0.9999878406524658
      ],
      "min": [
        -0.999916672706604,
        -0.9999988079071045,
        -0.9999935626983643
      ],
      "type": "VEC3"
    },
    {
      "bufferView": 1,
      "byteOffset": 554288,
      "componentType": 5126,
      "count": 65532,
      "max": [
        0.10000000149011612,
        0.09999990463256836
      ],
      "min": [
        0.0,
        0.0
      ],
      "type": "VEC2"
    },
    {
      "bufferView": 0,
      "byteOffset": 1548780,
      "componentType": 5125,
      "count": 383259,
      "type": "SCALAR"
    },
    {
      "bufferView": 2,
      "byteOffset": 3235632,
      "componentType": 5126,
      "count": 30272,
      "max": [
        0.05470125004649162,
        0.008395271375775337,
        1.300665259361267
      ],
      "min": [
        -0.0472952201962471,
        -0.010698657482862473,
        -1.2943006753921509
      ],
      "type": "VEC3"
    },
    {
      "bufferView": 2,
      "byteOffset": 3598896,
      "componentType": 5126,
      "count": 30272,
      "max": [
        0.9997320175170898,
        0.9999812841415405,
        0.9999901056289673
      ],
      "min": [
        -0.9998701810836792,
        -0.9999996423721313,
        -0.999976634979248
      ],
      "type": "VEC3"
    },
    {
      "bufferView": 1,
      "byteOffset": 1078544,
      "componentType": 5126,
      "count": 30272,
      "max": [
        0.10000000149011612,
        0.09999990463256836
      ],
      "min": [
        0.0,
        0.0
      ],
      "type": "VEC2"
    },
    {
      "bufferView": 0,
      "byteOffset": 3081816,
      "componentType": 5125,
      "count": 170664,
      "type": "SCALAR"
    },
    {
      "bufferView": 2,
      "byteOffset": 3962160,
      "componentType": 5126,
      "count": 65532,
      "max": [
        0.04727925732731819,
        0.008631602860987186,
        1.3068982362747192
      ],
      "min": [
        -0.058973249047994614,
        -0.011110248975455761,
        -1.2931971549987793
      ],
      "type": "VEC3"
    },
    {
      "bufferView": 2,
      "byteOffset": 4748544,
      "componentType": 5126,
      "count": 65532,
      "max": [
        1.0,
        1.0,
        1.0
      ],
      "min": [
        -1.0,
        -0.999995231628418,
        -0.9999101161956787
      ],
      "type": "VEC3"
    },
    {
      "bufferView": 1,
      "byteOffset": 1320720,
      "componentType": 5126,
      "count": 65532,
      "max": [
        0.10000000149011612,
        0.09999990463256836
      ],
      "min": [
        0.0,
        0.0
      ],
      "type": "VEC2"
    },
    {
      "bufferView": 0,
      "byteOffset": 3764472,
      "componentType": 5125,
      "count": 381825,
      "type": "SCALAR"
    },
    {
      "bufferView": 2,
      "byteOffset": 5534928,
      "componentType": 5126,
      "count": 65532,
      "max": [
        0.04640524834394455,
        0.009652050212025642,
        1.2984261512756348
      ],
      "min": [
        -0.05908980220556259,
        -0.01007572840899229,
        -1.3052072525024414
      ],
      "type": "VEC3"
    },
    {
      "bufferView": 2,
      "byteOffset": 6321312,
      "componentType": 5126,
      "count": 65532,
      "max": [
        0.9998527765274048,
        0.999998927116394,
        1.0
      ],
      "min": [
        -1.0,
        -0.9999986886978149,
        -1.0
      ],
      "type": "VEC3"
    },
    {
      "bufferView": 1,
      "byteOffset": 1844976,
      "componentType": 5126,
      "count": 65532,
      "max": [
        0.10000000149011612,
        0.09999990463256836
      ],
      "min": [
        0.0,
        0.0
      ],
      "type": "VEC2"
    },
    {
      "bufferView": 0,
      "byteOffset": 5291772,
      "componentType": 5125,
      "count": 382266,
      "type": "SCALAR"
    },
    {
      "bufferView": 2,
      "byteOffset": 7107696,
      "componentType": 5126,
      "count": 30282,
      "max": [
        0.04740506410598755,
        0.008554475381970406,
        1.302880883216858
      ],
      "min": [
        -0.058421749621629715,
        -0.009912473149597645,
        -1.3045709133148193
      ],
      "type": "VEC3"
    },
    {
      "bufferView": 2,
      "byteOffset": 7471080,
      "componentType": 5126,
      "count": 30282,
      "max": [
        0.9999758005142212,
        0.999984860420227,
        1.0
      ],
      "min": [
        -0.9998937845230103,
        -1.0,
        -1.0
      ],
      "type": "VEC3"
    },
    {
      "bufferView": 1,
      "byteOffset": 2369232,
      "componentType": 5126,
      "count": 30282,
      "max": [
        0.10000000149011612,
        0.09999990463256836
      ],
      "min": [
        0.0,
        0.0
      ],
      "type": "VEC2"
    },
    {
      "bufferView": 0,
      "byteOffset": 6820836,
      "componentType": 5125,
      "count": 171594,
      "type": "SCALAR"
    }
  ],
  "asset": {
    "extras": {
      "author": "mfb64 (https://sketchfab.com/mfb64)",
      "license": "CC-BY-4.0 (http://creativecommons.org/licenses/by/4.0/)",
      "source": "https://sketchfab.com/3d-models/signed-persian-nain-square-carpet-34a41e0b4f014ee496d8ea3ab5e243cb",
      "title": "Signed Persian Nain Square Carpet"
    },
    "generator": "Sketchfab-12.65.0",
    "version": "2.0"
  },
  "bufferViews": [
    {
      "buffer": 0,
      "byteLength": 7507212,
      "name": "floatBufferViews",
      "target": 34963
    },
    {
      "buffer": 0,
      "byteLength": 2611488,
      "byteOffset": 7507212,
      "byteStride": 8,
      "name": "floatBufferViews",
      "target": 34962
    },
    {
      "buffer": 0,
      "byteLength": 7834464,
      "byteOffset": 10118700,
      "byteStride": 12,
      "name": "floatBufferViews",
      "target": 34962
    }
  ],
  "buffers": [
    {
      "byteLength": 17953164,
      "uri": "carpet.bin"
    }
  ],
  "images": [
    {
      "uri": "textures/carpet_baseColor.jpeg"
    }
  ],
  "materials": [
    {
      "doubleSided": true,
      "name": "carpet",
      "pbrMetallicRoughness": {
        "baseColorTexture": {
          "index": 0
        },
        "metallicFactor": 0.0,
        "roughnessFactor": 0.7
      }
    },
    {
      "doubleSided": true,
      "name": "VELVET-GREEN__Budapest",
      "pbrMetallicRoughness": {
        "baseColorFactor": [
          0.8,
          0.772637,
          0.605329,
          1.0
        ],
        "metallicFactor": 0.0,
        "roughnessFactor": 0.95
      }
    }
  ],
  "meshes": [
    {
      "name": "Object_0",
      "primitives": [
        {
          "attributes": {
            "NORMAL": 1,
            "POSITION": 0,
            "TEXCOORD_0": 2
          },
          "indices": 3,
          "material": 0,
          "mode": 4
        }
      ]
    },
    {
      "name": "Object_1",
      "primitives": [
        {
          "attributes": {
            "NORMAL": 5,
            "POSITION": 4,
            "TEXCOORD_0": 6
          },
          "indices": 7,
          "material": 1,
          "mode": 4
        }
      ]
    },
    {
      "name": "Object_2",
      "primitives": [
        {
          "attributes": {
            "NORMAL": 9,
            "POSITION": 8,
            "TEXCOORD_0": 10
          },
          "indices": 11,
          "material": 1,
          "mode": 4
        }
      ]
    },
    {
      "name": "Object_3",
      "primitives": [
        {
          "attributes": {
            "NORMAL": 13,
            "POSITION": 12,
            "TEXCOORD_0": 14
          },
          "indices": 15,
          "material": 1,
          "mode": 4
        }
      ]
    },
    {
      "name": "Object_4",
      "primitives": [
        {
          "attributes": {
            "NORMAL": 17,
            "POSITION": 16,
            "TEXCOORD_0": 18
          },
          "indices": 19,
          "material": 1,
          "mode": 4
        }
      ]
    },
    {
      "name": "Object_5",
      "primitives": [
        {
          "attributes": {
            "NORMAL": 21,
            "POSITION": 20,
            "TEXCOORD_0": 22
          },
          "indices": 23,
          "material": 1,
          "mode": 4
        }
      ]
    },
    {
      "name": "Object_6",
      "primitives": [
        {
          "attributes": {
            "NORMAL": 25,
            "POSITION": 24,
            "TEXCOORD_0": 26
          },
          "indices": 27,
          "material": 1,
          "mode": 4
        }
      ]
    }
  ],
  "nodes": [
    {
      "children": [
        1
      ],
      "matrix": [
        1.0,
        0.0,
        0.0,
        0.0,
        0.0,
        2.220446049250313e-16,
        -1.0,
        0.0,
        0.0,
        1.0,
        2.220446049250313e-16,
        0.0,
        0.0,
        0.0,
        0.0,
        1.0
      ],
      "name": "Sketchfab_model"
    },
    {
      "children": [
        2
      ],
      "name": "root"
    },
    {
      "children": [
        3
      ],
      "matrix": [
        1.0,
        0.0,
        0.0,
        0.0,
        0.0,
        2.220446049250313e-16,
        1.0,
        0.0,
        0.0,
        -1.0,
        2.220446049250313e-16,
        0.0,
        0.0,
        0.0,
        0.0,
        1.0
      ],
      "name": "GLTF_SceneRootNode"
    },
    {
      "children": [
        4,
        5,
        9
      ],
      "name": "Signed Persian Nain Square Carpet_2"
    },
    {
      "mesh": 0,
      "name": "Object_4"
    },
    {
      "children": [
        6,
        7,
        8
      ],
      "matrix": [
        1.0,
        0.0,
        0.0,
        0.0,
        0.0,
        1.0,
        0.0,
        0.0,
        0.0,
        0.0,
        1.0,
        0.0,
        -1.3878729343414307,
        0.0014290933031588793,
        -0.009002803824841976,
        1.0
      ],
      "name": "frange1_0"
    },
    {
      "mesh": 1,
      "name": "Object_6"
    },
    {
      "mesh": 2,
      "name": "Object_7"
    },
    {
      "mesh": 3,
      "name": "Object_8"
    },
    {
      "children": [
        10,
        11,
        12
      ],
      "matrix": [
        1.0,
        0.0,
        0.0,
        0.0,
        0.0,
        1.0,
        0.0,
        0.0,
        0.0,
        0.0,
        1.0,
        0.0,
        1.3980002403259277,
        0.00037748058093711734,
        -0.008249015547335148,
        1.0
      ],
      "name": "frange2_1"
    },
    {
      "mesh": 4,
      "name": "Object_10"
    },
    {
      "mesh": 5,
      "name": "Object_11"
    },
    {
      "mesh": 6,
      "name": "Object_12"
    }
  ],
  "samplers": [
    {
      "magFilter": 9729,
      "minFilter": 9987,
      "wrapS": 10497,
      "wrapT": 10497
    }
  ],
  "scene": 0,
  "scenes": [
    {
      "name": "Sketchfab_Scene",
      "nodes": [
        0
      ]
    }
  ],
  "textures": [
    {
      "sampler": 0,
      "source": 0
    }
  ]
}
