{
  "accessors": [
    {
      "bufferView": 2,
      "componentType": 5126,
      "count": 2571,
      "max": [
        38.0,
        78.0,
        22.0
      ],
      "min": [
        -38.0,
        0.0,
        1.1175870895385742e-06
      ],
      "type": "VEC3"
    },
    {
      "bufferView": 2,
      "byteOffset": 30852,
      "componentType": 5126,
      "count": 2571,
      "max": [
        1.0,
        1.0,
        1.0
      ],
      "min": [
        -1.0,
        -1.0,
        -1.0
      ],
      "type": "VEC3"
    },
    {
      "bufferView": 1,
      "componentType": 5126,
      "count": 2571,
      "max": [
        0.0,
        0.0
      ],
      "min": [
        0.0,
        0.0
      ],
      "type": "VEC2"
    },
    {
      "bufferView": 0,
      "componentType": 5125,
      "count": 4296,
      "type": "SCALAR"
    },
    {
      "bufferView": 2,
      "byteOffset": 61704,
      "componentType": 5126,
      "count": 24,
      "max": [
        36.0,
        1.7000006437301636,
        20.0
      ],
      "min": [
        -36.0,
        0.29999953508377075,
        1.9999994039535522
      ],
      "type": "VEC3"
    },
    {
      "bufferView": 2,
      "byteOffset": 61992,
      "componentType": 5126,
      "count": 24,
      "max": [
        1.0,
        1.0,
        1.0
      ],
      "min": [
        -1.0,
        -1.0,
        -1.0
      ],
      "type": "VEC3"
    },
    {
      "bufferView": 1,
      "byteOffset": 20568,
      "componentType": 5126,
      "count": 24,
      "max": [
        0.9658815264701843,
        0.9554110765457153
      ],
      "min": [
        0.17527827620506287,
        0.007404536008834839
      ],
      "type": "VEC2"
    },
    {
      "bufferView": 0,
      "byteOffset": 17184,
      "componentType": 5125,
      "count": 36,
      "type": "SCALAR"
    },
    {
      "bufferView": 2,
      "byteOffset": 62280,
      "componentType": 5126,
      "count": 24,
      "max": [
        36.0,
        77.70000457763672,
        20.0
      ],
      "min": [
        -36.0,
        76.30000305175781,
        1.9999994039535522
      ],
      "type": "VEC3"
    },
    {
      "bufferView": 2,
      "byteOffset": 62568,
      "componentType": 5126,
      "count": 24,
      "max": [
        1.0,
        1.0,
        1.0
      ],
      "min": [
        -1.0,
        -1.0,
        -1.0
      ],
      "type": "VEC3"
    },
    {
      "bufferView": 1,
      "byteOffset": 20760,
      "componentType": 5126,
      "count": 24,
      "max": [
        0.9925955533981323,
        0.9554110765457153
      ],
      "min": [
        0.007404506206512451,
        0.007404518313705921
      ],
      "type": "VEC2"
    },
    {
      "bufferView": 0,
      "byteOffset": 17328,
      "componentType": 5125,
      "count": 36,
      "type": "SCALAR"
    },
    {
      "bufferView": 2,
      "byteOffset": 62856,
      "componentType": 5126,
      "count": 24,
      "max": [
        -4.999998092651367,
        50.70000457763672,
        20.0
      ],
      "min": [
        -36.0,
        49.30000305175781,
        1.9999994039535522
      ],
      "type": "VEC3"
    },
    {
      "bufferView": 2,
      "byteOffset": 63144,
      "componentType": 5126,
      "count": 24,
      "max": [
        1.0,
        1.0,
        1.0
      ],
      "min": [
        -1.0,
        -1.0,
        -1.0
      ],
      "type": "VEC3"
    },
    {
      "bufferView": 1,
      "byteOffset": 20952,
      "componentType": 5126,
      "count": 24,
      "max": [
        0.9391674995422363,
        0.9554110765457153
      ],
      "min": [
        0.3431520462036133,
        0.6344724893569946
      ],
      "type": "VEC2"
    },
    {
      "bufferView": 0,
      "byteOffset": 17472,
      "componentType": 5125,
      "count": 36,
      "type": "SCALAR"
    },
    {
      "bufferView": 2,
      "byteOffset": 63432,
      "componentType": 5126,
      "count": 24,
      "max": [
        36.0,
        40.70000457763672,
        20.0
      ],
      "min": [
        -3.0000030994415283,
        39.30000305175781,
        1.9999994039535522
      ],
      "type": "VEC3"
    },
    {
      "bufferView": 2,
      "byteOffset": 63720,
      "componentType": 5126,
      "count": 24,
      "max": [
        1.0,
        1.0,
        1.0
      ],
      "min": [
        -1.0,
        -1.0,
        -1.0
      ],
      "type": "VEC3"
    },
    {
      "bufferView": 1,
      "byteOffset": 21144,
      "componentType": 5126,
      "count": 24,
      "max": [
        0.9124533534049988,
        0.9661127924919128
      ],
      "min": [
        0.007404518313705921,
        0.6344724893569946
      ],
      "type": "VEC2"
    },
    {
      "bufferView": 0,
      "byteOffset": 17616,
      "componentType": 5125,
      "count": 36,
      "type": "SCALAR"
    },
    {
      "bufferView": 2,
      "byteOffset": 64008,
      "componentType": 5126,
      "count": 36,
      "max": [
        9.000003814697266,
        25.700002670288086,
        20.0
      ],
      "min": [
        -36.0,
        24.300004959106445,
        1.9999994039535522
      ],
      "type": "VEC3"
    },
    {
      "bufferView": 2,
      "byteOffset": 64440,
      "componentType": 5126,
      "count": 36,
      "max": [
        1.0,
        1.0,
        1.0
      ],
      "min": [
        -1.0,
        -1.0,
        -1.0
      ],
      "type": "VEC3"
    },
    {
      "bufferView": 1,
      "byteOffset": 21336,
      "componentType": 5126,
      "count": 36,
      "max": [
        0.9925955533981323,
        0.7875372171401978
      ],
      "min": [
        0.6788995862007141,
        0.007404521107673645
      ],
      "type": "VEC2"
    },
    {
      "bufferView": 0,
      "byteOffset": 17760,
      "componentType": 5125,
      "count": 42,
      "type": "SCALAR"
    }
  ],
  "asset": {
    "extras": {
      "author": "d-luX (https://sketchfab.com/dluX80)",
      "license": "CC-BY-4.0 (http://creativecommons.org/licenses/by/4.0/)",
      "source": "https://sketchfab.com/3d-models/dlx-book-shelfmanhattan-beach-f8ce190335134b20b57bbe4bea07e3ec",
      "title": "dlX-Book Shelf(Manhattan Beach)"
    },
    "generator": "Sketchfab-12.63.0",
    "version": "2.0"
  },
  "bufferViews": [
    {
      "buffer": 0,
      "byteLength": 17928,
      "name": "floatBufferViews",
      "target": 34963
    },
    {
      "buffer": 0,
      "byteLength": 21624,
      "byteOffset": 17928,
      "byteStride": 8,
      "name": "floatBufferViews",
      "target": 34962
    },
    {
      "buffer": 0,
      "byteLength": 64872,
      "byteOffset": 39552,
      "byteStride": 12,
      "name": "floatBufferViews",
      "target": 34962
    }
  ],
  "buffers": [
    {
      "byteLength": 104424,
      "uri": "kid_bookshelf.bin"
    }
  ],
  "images": [
    {
      "uri": "textures/Planes_baseColor.png"
    }
  ],
  "materials": [
    {
      "doubleSided": true,
      "name": "Metal",
      "pbrMetallicRoughness": {
        "baseColorFactor": [
          0.0115663,
          0.0115663,
          0.0115663,
          1.0
        ],
        "metallicFactor": 0.1658747241121427,
        "roughnessFactor": 0.21451610941879626
      }
    },
    {
      "doubleSided": true,
      "name": "Planes",
      "pbrMetallicRoughness": {
        "baseColorTexture": {
          "index": 0
        },
        "metallicFactor": 0.0,
        "roughnessFactor": 0.8211145618000169
      }
    }
  ],
  "meshes": [
    {
      "name": "Frame_Metal_0",
      "primitives": [
        {
          "attributes": {
            "NORMAL": 1,
            "POSITION": 0,
            "TEXCOORD_0": 2
          },
          "indices": 3,
          "material": 0,
          "mode": 4
        }
      ]
    },
    {
      "name": "Plane5_Planes_0",
      "primitives": [
        {
          "attributes": {
            "NORMAL": 5,
            "POSITION": 4,
            "TEXCOORD_0": 6
          },
          "indices": 7,
          "material": 1,
          "mode": 4
        }
      ]
    },
    {
      "name": "Plane1_Planes_0",
      "primitives": [
        {
          "attributes": {
            "NORMAL": 9,
            "POSITION": 8,
            "TEXCOORD_0": 10
          },
          "indices": 11,
          "material": 1,
          "mode": 4
        }
      ]
    },
    {
      "name": "Plane2_Planes_0",
      "primitives": [
        {
          "attributes": {
            "NORMAL": 13,
            "POSITION": 12,
            "TEXCOORD_0": 14
          },
          "indices": 15,
          "material": 1,
          "mode": 4
        }
      ]
    },
    {
      "name": "Plane3_Planes_0",
      "primitives": [
        {
          "attributes": {
            "NORMAL": 17,
            "POSITION": 16,
            "TEXCOORD_0": 18
          },
          "indices": 19,
          "material": 1,
          "mode": 4
        }
      ]
    },
    {
      "name": "Plane4_Planes_0",
      "primitives": [
        {
          "attributes": {
            "NORMAL": 21,
            "POSITION": 20,
            "TEXCOORD_0": 22
          },
          "indices": 23,
          "material": 1,
          "mode": 4
        }
      ]
    }
  ],
  "nodes": [
    {
      "children": [
        1
      ],
      "matrix": [
        1.0,
        0.0,
        0.0,
        0.0,
        0.0,
        2.220446049250313e-16,
        -1.0,
        0.0,
        0.0,
        1.0,
        2.220446049250313e-16,
        0.0,
        0.0,
        0.0,
        0.0,
        1.0
      ],
      "name": "Sketchfab_model"
    },
    {
      "children": [
        2
      ],
      "matrix": [
        0.009999999776482582,
        0.0,
        0.0,
        0.0,
        0.0,
        0.0,
        0.009999999776482582,
        0.0,
        0.0,
        -0.009999999776482582,
        0.0,
        0.0,
        0.0,
        0.0,
        0.0,
        1.0
      ],
      "name": "7d96794589f14a9cbdcce97dd85aa904.fbx"
    },
    {
      "children": [
        3,
        5,
        7,
        9,
        11,
        13
      ],
      "name": "RootNode"
    },
    {
      "children": [
        4
      ],
      "name": "Frame"
    },
    {
      "mesh": 0,
      "name": "Frame_Metal_0"
    },
    {
      "children": [
        6
      ],
      "name": "Plane5"
    },
    {
      "mesh": 1,
      "name": "Plane5_Planes_0"
    },
    {
      "children": [
        8
      ],
      "name": "Plane1"
    },
    {
      "mesh": 2,
      "name": "Plane1_Planes_0"
    },
    {
      "children": [
        10
      ],
      "name": "Plane2"
    },
    {
      "mesh": 3,
      "name": "Plane2_Planes_0"
    },
    {
      "children": [
        12
      ],
      "name": "Plane3"
    },
    {
      "mesh": 4,
      "name": "Plane3_Planes_0"
    },
    {
      "children": [
        14
      ],
      "name": "Plane4"
    },
    {
      "mesh": 5,
      "name": "Plane4_Planes_0"
    }
  ],
  "samplers": [
    {
      "magFilter": 9729,
      "minFilter": 9987,
      "wrapS": 10497,
      "wrapT": 10497
    }
  ],
  "scene": 0,
  "scenes": [
    {
      "name": "Sketchfab_Scene",
      "nodes": [
        0
      ]
    }
  ],
  "textures": [
    {
      "sampler": 0,
      "source": 0
    }
  ]
}
