{
  "accessors": [
    {
      "bufferView": 2,
      "componentType": 5126,
      "count": 1385,
      "max": [
        -0.016859380528330803,
        0.19251196086406708,
        0.4919189214706421
      ],
      "min": [
        -0.257195383310318,
        -0.04782405123114586,
        0.09225329011678696
      ],
      "type": "VEC3"
    },
    {
      "bufferView": 2,
      "byteOffset": 16620,
      "componentType": 5126,
      "count": 1385,
      "max": [
        1.0,
        1.0,
        1.0
      ],
      "min": [
        -1.0,
        -1.0,
        -1.0
      ],
      "type": "VEC3"
    },
    {
      "bufferView": 3,
      "componentType": 5126,
      "count": 1385,
      "max": [
        1.0,
        1.0,
        1.0,
        1.0
      ],
      "min": [
        -1.0,
        -1.0,
        -1.0,
        1.0
      ],
      "type": "VEC4"
    },
    {
      "bufferView": 1,
      "componentType": 5126,
      "count": 1385,
      "max": [
        0.929432213306427,
        0.999600887298584
      ],
      "min": [
        0.00039901642594486475,
        0.00039901642594486475
      ],
      "type": "VEC2"
    },
    {
      "bufferView": 0,
      "componentType": 5125,
      "count": 5568,
      "type": "SCALAR"
    },
    {
      "bufferView": 2,
      "byteOffset": 33240,
      "componentType": 5126,
      "count": 816,
      "max": [
        0.22108720242977142,
        0.014139216393232346,
        0.22439055144786835
      ],
      "min": [
        0.06998246908187866,
        -0.1369655430316925,
        0.0935230478644371
      ],
      "type": "VEC3"
    },
    {
      "bufferView": 2,
      "byteOffset": 43032,
      "componentType": 5126,
      "count": 816,
      "max": [
        0.9969853162765503,
        0.9968265295028687,
        1.0
      ],
      "min": [
        -0.9990447163581848,
        -0.9968265295028687,
        -1.0
      ],
      "type": "VEC3"
    },
    {
      "bufferView": 3,
      "byteOffset": 22160,
      "componentType": 5126,
      "count": 816,
      "max": [
        0.9979426264762878,
        0.9999986886978149,
        0.9589422345161438,
        1.0
      ],
      "min": [
        -0.9999986886978149,
        -0.9999986886978149,
        -0.9993376731872559,
        1.0
      ],
      "type": "VEC4"
    },
    {
      "bufferView": 1,
      "byteOffset": 11080,
      "componentType": 5126,
      "count": 816,
      "max": [
        0.9920623898506165,
        0.970487654209137
      ],
      "min": [
        -2.682209014892578e-07,
        0.0
      ],
      "type": "VEC2"
    },
    {
      "bufferView": 0,
      "byteOffset": 22272,
      "componentType": 5125,
      "count": 2850,
      "type": "SCALAR"
    },
    {
      "bufferView": 2,
      "byteOffset": 52824,
      "componentType": 5126,
      "count": 480,
      "max": [
        0.22643685340881348,
        0.019488850608468056,
        0.20510758459568024
      ],
      "min": [
        0.0646328330039978,
        -0.14231513440608978,
        0.08968178182840347
      ],
      "type": "VEC3"
    },
    {
      "bufferView": 2,
      "byteOffset": 58584,
      "componentType": 5126,
      "count": 480,
      "max": [
        1.0,
        1.0,
        1.0
      ],
      "min": [
        -1.0,
        -1.0,
        -1.0
      ],
      "type": "VEC3"
    },
    {
      "bufferView": 3,
      "byteOffset": 35216,
      "componentType": 5126,
      "count": 480,
      "max": [
        0.9999036192893982,
        0.9996384978294373,
        0.9999211430549622,
        1.0
      ],
      "min": [
        -0.9997231960296631,
        -0.9997231960296631,
        -0.9999209046363831,
        1.0
      ],
      "type": "VEC4"
    },
    {
      "bufferView": 1,
      "byteOffset": 17608,
      "componentType": 5126,
      "count": 480,
      "max": [
        0.9999999403953552,
        0.8341447114944458
      ],
      "min": [
        -1.341104507446289e-07,
        -2.980232238769531e-07
      ],
      "type": "VEC2"
    },
    {
      "bufferView": 0,
      "byteOffset": 33672,
      "componentType": 5125,
      "count": 2304,
      "type": "SCALAR"
    },
    {
      "bufferView": 2,
      "byteOffset": 64344,
      "componentType": 5126,
      "count": 1390,
      "max": [
        0.3029080629348755,
        0.171921968460083,
        0.09280718863010406
      ],
      "min": [
        -0.25259435176849365,
        -0.1842520833015442,
        -0.4967265725135803
      ],
      "type": "VEC3"
    },
    {
      "bufferView": 2,
      "byteOffset": 81024,
      "componentType": 5126,
      "count": 1390,
      "max": [
        1.0,
        1.0,
        1.0
      ],
      "min": [
        -1.0,
        -1.0,
        -1.0
      ],
      "type": "VEC3"
    },
    {
      "bufferView": 3,
      "byteOffset": 42896,
      "componentType": 5126,
      "count": 1390,
      "max": [
        1.0,
        1.0,
        1.0,
        1.0
      ],
      "min": [
        -1.0,
        -1.0,
        -1.0,
        -1.0
      ],
      "type": "VEC4"
    },
    {
      "bufferView": 1,
      "byteOffset": 21448,
      "componentType": 5126,
      "count": 1390,
      "max": [
        1.0,
        1.0
      ],
      "min": [
        0.0,
        0.0
      ],
      "type": "VEC2"
    },
    {
      "bufferView": 0,
      "byteOffset": 42888,
      "componentType": 5125,
      "count": 4188,
      "type": "SCALAR"
    }
  ],
  "asset": {
    "extras": {
      "author": "EVERMORE3D (https://sketchfab.com/evermore3d)",
      "license": "CC-BY-NC-4.0 (http://creativecommons.org/licenses/by-nc/4.0/)",
      "source": "https://sketchfab.com/3d-models/nightstand-11347c9659ae4f8c8e4f90be7419ea87",
      "title": "Nightstand"
    },
    "generator": "Sketchfab-12.68.0",
    "version": "2.0"
  },
  "bufferViews": [
    {
      "buffer": 0,
      "byteLength": 59640,
      "name": "floatBufferViews",
      "target": 34963
    },
    {
      "buffer": 0,
      "byteLength": 32568,
      "byteOffset": 59640,
      "byteStride": 8,
      "name": "floatBufferViews",
      "target": 34962
    },
    {
      "buffer": 0,
      "byteLength": 97704,
      "byteOffset": 92208,
      "byteStride": 12,
      "name": "floatBufferViews",
      "target": 34962
    },
    {
      "buffer": 0,
      "byteLength": 65136,
      "byteOffset": 189912,
      "byteStride": 16,
      "name": "floatBufferViews",
      "target": 34962
    }
  ],
  "buffers": [
    {
      "byteLength": 255048,
      "uri": "kid_nightstand.bin"
    }
  ],
  "extensionsUsed": [
    "KHR_materials_transmission"
  ],
  "images": [
    {
      "uri": "textures/Lamp_baseColor.png"
    },
    {
      "uri": "textures/Lamp_metallicRoughness.png"
    },
    {
      "uri": "textures/Lamp_emissive.png"
    },
    {
      "uri": "textures/Lamp_normal.png"
    },
    {
      "uri": "textures/Vase_baseColor.png"
    },
    {
      "uri": "textures/Vase_metallicRoughness.png"
    },
    {
      "uri": "textures/Vase_normal.png"
    },
    {
      "uri": "textures/Vase_Glass_baseColor.png"
    },
    {
      "uri": "textures/Vase_Glass_metallicRoughness.png"
    },
    {
      "uri": "textures/Vase_Glass_transmission.png"
    },
    {
      "uri": "textures/Nightstand_baseColor.png"
    },
    {
      "uri": "textures/Nightstand_metallicRoughness.png"
    },
    {
      "uri": "textures/Nightstand_normal.png"
    }
  ],
  "materials": [
    {
      "doubleSided": true,
      "emissiveFactor": [
        1.0,
        1.0,
        1.0
      ],
      "emissiveTexture": {
        "index": 2
      },
      "name": "Lamp",
      "normalTexture": {
        "index": 3
      },
      "occlusionTexture": {
        "index": 1
      },
      "pbrMetallicRoughness": {
        "baseColorTexture": {
          "index": 0
        },
        "metallicRoughnessTexture": {
          "index": 1
        }
      }
    },
    {
      "doubleSided": true,
      "name": "Vase",
      "normalTexture": {
        "index": 6
      },
      "pbrMetallicRoughness": {
        "baseColorTexture": {
          "index": 4
        },
        "metallicRoughnessTexture": {
          "index": 5
        }
      }
    },
    {
      "alphaMode": "BLEND",
      "doubleSided": true,
      "extensions": {
        "KHR_materials_transmission": {
          "transmissionFactor": 1.0,
          "transmissionTexture": {
            "index": 9
          }
        }
      },
      "name": "Vase_Glass",
      "normalTexture": {
        "index": 6
      },
      "occlusionTexture": {
        "index": 8
      },
      "pbrMetallicRoughness": {
        "baseColorFactor": [
          0.8464433773,
          0.9577743762,
          1.0,
          1.0
        ],
        "baseColorTexture": {
          "index": 7
        },
        "metallicRoughnessTexture": {
          "index": 8
        }
      }
    },
    {
      "doubleSided": true,
      "name": "Nightstand",
      "normalTexture": {
        "index": 12
      },
      "occlusionTexture": {
        "index": 11
      },
      "pbrMetallicRoughness": {
        "baseColorTexture": {
          "index": 10
        },
        "metallicRoughnessTexture": {
          "index": 11
        }
      }
    }
  ],
  "meshes": [
    {
      "name": "Lamp_Lamp_0",
      "primitives": [
        {
          "attributes": {
            "NORMAL": 1,
            "POSITION": 0,
            "TANGENT": 2,
            "TEXCOORD_0": 3
          },
          "indices": 4,
          "material": 0,
          "mode": 4
        }
      ]
    },
    {
      "name": "Vase_Vase_0",
      "primitives": [
        {
          "attributes": {
            "NORMAL": 6,
            "POSITION": 5,
            "TANGENT": 7,
            "TEXCOORD_0": 8
          },
          "indices": 9,
          "material": 1,
          "mode": 4
        }
      ]
    },
    {
      "name": "Vase_Vase Glass_0",
      "primitives": [
        {
          "attributes": {
            "NORMAL": 11,
            "POSITION": 10,
            "TANGENT": 12,
            "TEXCOORD_0": 13
          },
          "indices": 14,
          "material": 2,
          "mode": 4
        }
      ]
    },
    {
      "name": "Nightstand_Nightstand_0",
      "primitives": [
        {
          "attributes": {
            "NORMAL": 16,
            "POSITION": 15,
            "TANGENT": 17,
            "TEXCOORD_0": 18
          },
          "indices": 19,
          "material": 3,
          "mode": 4
        }
      ]
    }
  ],
  "nodes": [
    {
      "children": [
        1
      ],
      "matrix": [
        1.0,
        0.0,
        0.0,
        0.0,
        0.0,
        2.220446049250313e-16,
        -1.0,
        0.0,
        0.0,
        1.0,
        2.220446049250313e-16,
        0.0,
        0.0,
        0.0,
        0.0,
        1.0
      ],
      "name": "Sketchfab_model"
    },
    {
      "children": [
        2
      ],
      "matrix": [
        1.0,
        0.0,
        0.0,
        0.0,
        0.0,
        0.0,
        1.0,
        0.0,
        0.0,
        -1.0,
        0.0,
        0.0,
        0.0,
        0.0,
        0.0,
        1.0
      ],
      "name": "f0227b01c31142edb082f7785904f63c.fbx"
    },
    {
      "children": [
        3,
        5,
        8
      ],
      "name": "RootNode"
    },
    {
      "children": [
        4
      ],
      "matrix": [
        100.0,
        0.0,
        0.0,
        0.0,
        0.0,
        -1.629206793918314e-05,
        -99.99999999999868,
        0.0,
        0.0,
        99.99999999999868,
        -1.629206793918314e-05,
        0.0,
        0.0,
        49.8033561706543,
        0.0,
        1.0
      ],
      "name": "Lamp"
    },
    {
      "mesh": 0,
      "name": "Lamp_Lamp_0"
    },
    {
      "children": [
        6,
        7
      ],
      "matrix": [
        100.0,
        0.0,
        0.0,
        0.0,
        0.0,
        -1.629206793918314e-05,
        -99.99999999999868,
        0.0,
        0.0,
        99.99999999999868,
        -1.629206793918314e-05,
        0.0,
        0.0,
        49.8033561706543,
        0.0,
        1.0
      ],
      "name": "Vase"
    },
    {
      "mesh": 1,
      "name": "Vase_Vase_0"
    },
    {
      "mesh": 2,
      "name": "Vase_Vase Glass_0"
    },
    {
      "children": [
        9
      ],
      "matrix": [
        100.0,
        0.0,
        0.0,
        0.0,
        0.0,
        -1.629206793918314e-05,
        -99.99999999999868,
        0.0,
        0.0,
        99.99999999999868,
        -1.629206793918314e-05,
        0.0,
        0.0,
        49.8033561706543,
        0.0,
        1.0
      ],
      "name": "Nightstand"
    },
    {
      "mesh": 3,
      "name": "Nightstand_Nightstand_0"
    }
  ],
  "samplers": [
    {
      "magFilter": 9729,
      "minFilter": 9987,
      "wrapS": 10497,
      "wrapT": 10497
    }
  ],
  "scene": 0,
  "scenes": [
    {
      "name": "Sketchfab_Scene",
      "nodes": [
        0
      ]
    }
  ],
  "textures": [
    {
      "sampler": 0,
      "source": 0
    },
    {
      "sampler": 0,
      "source": 1
    },
    {
      "sampler": 0,
      "source": 2
    },
    {
      "sampler": 0,
      "source": 3
    },
    {
      "sampler": 0,
      "source": 4
    },
    {
      "sampler": 0,
      "source": 5
    },
    {
      "sampler": 0,
      "source": 6
    },
    {
      "sampler": 0,
      "source": 7
    },
    {
      "sampler": 0,
      "source": 8
    },
    {
      "sampler": 0,
      "source": 9
    },
    {
      "sampler": 0,
      "source": 10
    },
    {
      "sampler": 0,
      "source": 11
    },
    {
      "sampler": 0,
      "source": 12
    }
  ]
}
