{
  "accessors": [
    {
      "bufferView": 2,
      "componentType": 5126,
      "count": 3184,
      "max": [
        1.9681777954101563,
        0.0,
        1.4974613189697266
      ],
      "min": [
        -1.9704139232635498,
        -0.006000000052154064,
        -1.502120852470398
      ],
      "type": "VEC3"
    },
    {
      "bufferView": 2,
      "byteOffset": 38208,
      "componentType": 5126,
      "count": 3184,
      "max": [
        1.0,
        1.0,
        1.0
      ],
      "min": [
        -1.0,
        -1.0,
        -1.0
      ],
      "type": "VEC3"
    },
    {
      "bufferView": 1,
      "componentType": 5126,
      "count": 3184,
      "max": [
        0.9737206697463989,
        0.9559754729270935
      ],
      "min": [
        0.028009461238980293,
        0.044589653611183167
      ],
      "type": "VEC2"
    },
    {
      "bufferView": 1,
      "byteOffset": 25472,
      "componentType": 5126,
      "count": 3184,
      "max": [
        0.9737206697463989,
        0.9559754729270935
      ],
      "min": [
        0.028009461238980293,
        0.044589653611183167
      ],
      "type": "VEC2"
    },
    {
      "bufferView": 0,
      "componentType": 5125,
      "count": 4980,
      "type": "SCALAR"
    },
    {
      "bufferView": 2,
      "byteOffset": 76416,
      "componentType": 5126,
      "count": 65532,
      "max": [
        0.0478348471224308,
        0.005716165527701378,
        0.9420095682144165
      ],
      "min": [
        -0.034417200833559036,
        -0.007705262862145901,
        -0.92801833152771
      ],
      "type": "VEC3"
    },
    {
      "bufferView": 2,
      "byteOffset": 862800,
      "componentType": 5126,
      "count": 65532,
      "max": [
        0.9999667406082153,
        0.9999948740005493,
        0.9999850988388062
      ],
      "min": [
        -0.9999631643295288,
        -0.9999997615814209,
        -0.9999943971633911
      ],
      "type": "VEC3"
    },
    {
      "bufferView": 1,
      "byteOffset": 50944,
      "componentType": 5126,
      "count": 65532,
      "max": [
        0.10000000149011612,
        0.09999990463256836
      ],
      "min": [
        0.0,
        0.0
      ],
      "type": "VEC2"
    },
    {
      "bufferView": 0,
      "byteOffset": 19920,
      "componentType": 5125,
      "count": 378789,
      "type": "SCALAR"
    },
    {
      "bufferView": 2,
      "byteOffset": 1649184,
      "componentType": 5126,
      "count": 65532,
      "max": [
        0.04815484583377838,
        0.006157800555229187,
        0.9391184449195862
      ],
      "min": [
        -0.03425862267613411,
        -0.007117640692740679,
        -0.9379479885101318
      ],
      "type": "VEC3"
    },
    {
      "bufferView": 2,
      "byteOffset": 2435568,
      "componentType": 5126,
      "count": 65532,
      "max": [
        0.9998327493667603,
        0.9999977350234985,
        0.9999979734420776
      ],
      "min": [
        -0.9999469518661499,
        -0.9999924898147583,
        -0.9999902248382568
      ],
      "type": "VEC3"
    },
    {
      "bufferView": 1,
      "byteOffset": 575200,
      "componentType": 5126,
      "count": 65532,
      "max": [
        0.10000000149011612,
        0.09999990463256836
      ],
      "min": [
        0.0,
        0.0
      ],
      "type": "VEC2"
    },
    {
      "bufferView": 0,
      "byteOffset": 1535076,
      "componentType": 5125,
      "count": 380151,
      "type": "SCALAR"
    },
    {
      "bufferView": 2,
      "byteOffset": 3221952,
      "componentType": 5126,
      "count": 28001,
      "max": [
        0.04808230698108673,
        0.006046344991773367,
        0.9397825598716736
      ],
      "min": [
        -0.03499004989862442,
        -0.0071319108828902245,
        -0.9343482255935669
      ],
      "type": "VEC3"
    },
    {
      "bufferView": 2,
      "byteOffset": 3557964,
      "componentType": 5126,
      "count": 28001,
      "max": [
        0.9997972249984741,
        0.9999971389770508,
        0.9999985694885254
      ],
      "min": [
        -0.9999468326568604,
        -0.9999995231628418,
        -0.9999871253967285
      ],
      "type": "VEC3"
    },
    {
      "bufferView": 1,
      "byteOffset": 1099456,
      "componentType": 5126,
      "count": 28001,
      "max": [
        0.10000000149011612,
        0.09999990463256836
      ],
      "min": [
        0.0,
        0.0
      ],
      "type": "VEC2"
    },
    {
      "bufferView": 0,
      "byteOffset": 3055680,
      "componentType": 5125,
      "count": 155103,
      "type": "SCALAR"
    },
    {
      "bufferView": 2,
      "byteOffset": 3893976,
      "componentType": 5126,
      "count": 65532,
      "max": [
        0.03614727035164833,
        0.0062165530398488045,
        0.9281280040740967
      ],
      "min": [
        -0.042375098913908005,
        -0.007213410921394825,
        -0.9438204169273376
      ],
      "type": "VEC3"
    },
    {
      "bufferView": 2,
      "byteOffset": 4680360,
      "componentType": 5126,
      "count": 65532,
      "max": [
        0.9999985694885254,
        0.9999997615814209,
        0.9999938011169434
      ],
      "min": [
        -0.9999010562896729,
        -0.9999961853027344,
        -0.9999594688415527
      ],
      "type": "VEC3"
    },
    {
      "bufferView": 1,
      "byteOffset": 1323464,
      "componentType": 5126,
      "count": 65532,
      "max": [
        0.10000000149011612,
        0.09999990463256836
      ],
      "min": [
        0.0,
        0.0
      ],
      "type": "VEC2"
    },
    {
      "bufferView": 0,
      "byteOffset": 3676092,
      "componentType": 5125,
      "count": 378633,
      "type": "SCALAR"
    },
    {
      "bufferView": 2,
      "byteOffset": 5466744,
      "componentType": 5126,
      "count": 65532,
      "max": [
        0.035588234663009644,
        0.006951487623155117,
        0.9306799173355103
      ],
      "min": [
        -0.04245074838399887,
        -0.007414072751998901,
        -0.9368107318878174
      ],
      "type": "VEC3"
    },
    {
      "bufferView": 2,
      "byteOffset": 6253128,
      "componentType": 5126,
      "count": 65532,
      "max": [
        0.9999431371688843,
        0.999998927116394,
        0.9999943971633911
      ],
      "min": [
        -0.9999949932098389,
        -0.9999998807907104,
        -0.9999972581863403
      ],
      "type": "VEC3"
    },
    {
      "bufferView": 1,
      "byteOffset": 1847720,
      "componentType": 5126,
      "count": 65532,
      "max": [
        0.10000000149011612,
        0.09999990463256836
      ],
      "min": [
        0.0,
        0.0
      ],
      "type": "VEC2"
    },
    {
      "bufferView": 0,
      "byteOffset": 5190624,
      "componentType": 5125,
      "count": 380007,
      "type": "SCALAR"
    },
    {
      "bufferView": 2,
      "byteOffset": 7039512,
      "componentType": 5126,
      "count": 28072,
      "max": [
        0.03548726066946983,
        0.006082767620682716,
        0.9287895560264587
      ],
      "min": [
        -0.0422968715429306,
        -0.008001694455742836,
        -0.9433741569519043
      ],
      "type": "VEC3"
    },
    {
      "bufferView": 2,
      "byteOffset": 7376376,
      "componentType": 5126,
      "count": 28072,
      "max": [
        0.9998902082443237,
        0.9999972581863403,
        0.9999808073043823
      ],
      "min": [
        -0.9998226165771484,
        -0.9999969005584717,
        -0.9999895095825195
      ],
      "type": "VEC3"
    },
    {
      "bufferView": 1,
      "byteOffset": 2371976,
      "componentType": 5126,
      "count": 28072,
      "max": [
        0.10000000149011612,
        0.09999990463256836
      ],
      "min": [
        0.0,
        0.0
      ],
      "type": "VEC2"
    },
    {
      "bufferView": 0,
      "byteOffset": 6710652,
      "componentType": 5125,
      "count": 155481,
      "type": "SCALAR"
    }
  ],
  "asset": {
    "extras": {
      "author": "mfb64 (https://sketchfab.com/mfb64)",
      "license": "CC-BY-4.0 (http://creativecommons.org/licenses/by/4.0/)",
      "source": "https://sketchfab.com/3d-models/polonaise-eastcote-double-sky-carpet-950b398227204eb6996e2c46d9af65c6",
      "title": "Polonaise Eastcote Double Sky carpet"
    },
    "generator": "Sketchfab-12.65.0",
    "version": "2.0"
  },
  "bufferViews": [
    {
      "buffer": 0,
      "byteLength": 7332576,
      "name": "floatBufferViews",
      "target": 34963
    },
    {
      "buffer": 0,
      "byteLength": 2596552,
      "byteOffset": 7332576,
      "byteStride": 8,
      "name": "floatBufferViews",
      "target": 34962
    },
    {
      "buffer": 0,
      "byteLength": 7713240,
      "byteOffset": 9929128,
      "byteStride": 12,
      "name": "floatBufferViews",
      "target": 34962
    }
  ],
  "buffers": [
    {
      "byteLength": 17642368,
      "uri": "kids_carpet.bin"
    }
  ],
  "extensionsRequired": [
    "KHR_materials_pbrSpecularGlossiness"
  ],
  "extensionsUsed": [
    "KHR_materials_pbrSpecularGlossiness"
  ],
  "images": [
    {
      "uri": "textures/carpet_diffuse.png"
    }
  ],
  "materials": [
    {
      "doubleSided": true,
      "extensions": {
        "KHR_materials_pbrSpecularGlossiness": {
          "diffuseFactor": [
            1.0,
            1.0,
            1.0,
            1.0
          ],
          "diffuseTexture": {
            "index": 0
          },
          "glossinessFactor": 0.19999999999999996,
          "specularFactor": [
            0.0,
            0.0,
            0.0
          ]
        }
      },
      "name": "carpet"
    },
    {
      "doubleSided": true,
      "extensions": {
        "KHR_materials_pbrSpecularGlossiness": {
          "diffuseFactor": [
            0.16696043303755678,
            0.002288219293521348,
            0.011735110121891323,
            1.0
          ],
          "glossinessFactor": 0.050000000000000044,
          "specularFactor": [
            0.0,
            0.0,
            0.0
          ]
        }
      },
      "name": "VELVET-GREEN__Budapest"
    }
  ],
  "meshes": [
    {
      "name": "Object_0",
      "primitives": [
        {
          "attributes": {
            "NORMAL": 1,
            "POSITION": 0,
            "TEXCOORD_0": 2,
            "TEXCOORD_1": 3
          },
          "indices": 4,
          "material": 0,
          "mode": 4
        }
      ]
    },
    {
      "name": "Object_1",
      "primitives": [
        {
          "attributes": {
            "NORMAL": 6,
            "POSITION": 5,
            "TEXCOORD_0": 7
          },
          "indices": 8,
          "material": 1,
          "mode": 4
        }
      ]
    },
    {
      "name": "Object_2",
      "primitives": [
        {
          "attributes": {
            "NORMAL": 10,
            "POSITION": 9,
            "TEXCOORD_0": 11
          },
          "indices": 12,
          "material": 1,
          "mode": 4
        }
      ]
    },
    {
      "name": "Object_3",
      "primitives": [
        {
          "attributes": {
            "NORMAL": 14,
            "POSITION": 13,
            "TEXCOORD_0": 15
          },
          "indices": 16,
          "material": 1,
          "mode": 4
        }
      ]
    },
    {
      "name": "Object_4",
      "primitives": [
        {
          "attributes": {
            "NORMAL": 18,
            "POSITION": 17,
            "TEXCOORD_0": 19
          },
          "indices": 20,
          "material": 1,
          "mode": 4
        }
      ]
    },
    {
      "name": "Object_5",
      "primitives": [
        {
          "attributes": {
            "NORMAL": 22,
            "POSITION": 21,
            "TEXCOORD_0": 23
          },
          "indices": 24,
          "material": 1,
          "mode": 4
        }
      ]
    },
    {
      "name": "Object_6",
      "primitives": [
        {
          "attributes": {
            "NORMAL": 26,
            "POSITION": 25,
            "TEXCOORD_0": 27
          },
          "indices": 28,
          "material": 1,
          "mode": 4
        }
      ]
    }
  ],
  "nodes": [
    {
      "children": [
        1
      ],
      "matrix": [
        1.0,
        0.0,
        0.0,
        0.0,
        0.0,
        2.220446049250313e-16,
        -1.0,
        0.0,
        0.0,
        1.0,
        2.220446049250313e-16,
        0.0,
        0.0,
        0.0,
        0.0,
        1.0
      ],
      "name": "Sketchfab_model"
    },
    {
      "children": [
        2
      ],
      "name": "root"
    },
    {
      "children": [
        3
      ],
      "matrix": [
        1.0,
        0.0,
        0.0,
        0.0,
        0.0,
        2.220446049250313e-16,
        1.0,
        0.0,
        0.0,
        -1.0,
        2.220446049250313e-16,
        0.0,
        0.0,
        0.0,
        0.0,
        1.0
      ],
      "name": "GLTF_SceneRootNode"
    },
    {
      "children": [
        4,
        5,
        9
      ],
      "matrix": [
        1.0,
        0.0,
        0.0,
        0.0,
        0.0,
        1.0,
        0.0,
        0.0,
        0.0,
        0.0,
        1.0,
        0.0,
        0.0,
        0.005000000353902578,
        0.0,
        1.0
      ],
      "name": "Polonaise Eastcote DoubleSky_2"
    },
    {
      "mesh": 0,
      "name": "Object_4"
    },
    {
      "children": [
        6,
        7,
        8
      ],
      "matrix": [
        1.8431066274642944,
        0.0,
        0.0,
        0.0,
        0.0,
        1.61305832862854,
        0.0,
        0.0,
        0.0,
        0.0,
        1.61305832862854,
        0.0,
        -2.0340466499328613,
        -0.00505202729254961,
        0.00018563400954008102,
        1.0
      ],
      "name": "frange1_0"
    },
    {
      "mesh": 1,
      "name": "Object_6"
    },
    {
      "mesh": 2,
      "name": "Object_7"
    },
    {
      "mesh": 3,
      "name": "Object_8"
    },
    {
      "children": [
        10,
        11,
        12
      ],
      "matrix": [
        1.8504518270492554,
        0.0,
        0.0,
        0.0,
        0.0,
        1.61305832862854,
        0.0,
        0.0,
        0.0,
        0.0,
        1.61305832862854,
        0.0,
        2.0290067195892334,
        -0.0050415461882948875,
        0.019440285861492157,
        1.0
      ],
      "name": "frange2_1"
    },
    {
      "mesh": 4,
      "name": "Object_10"
    },
    {
      "mesh": 5,
      "name": "Object_11"
    },
    {
      "mesh": 6,
      "name": "Object_12"
    }
  ],
  "samplers": [
    {
      "magFilter": 9729,
      "minFilter": 9987,
      "wrapS": 10497,
      "wrapT": 10497
    }
  ],
  "scene": 0,
  "scenes": [
    {
      "name": "Sketchfab_Scene",
      "nodes": [
        0
      ]
    }
  ],
  "textures": [
    {
      "sampler": 0,
      "source": 0
    }
  ]
}
