{
  "accessors": [
    {
      "bufferView": 2,
      "componentType": 5126,
      "count": 4,
      "max": [
        0.0679951161146164,
        0.003896182170137763,
        0.22365960478782654
      ],
      "min": [
        -0.06723037362098694,
        -0.023841755464673042,
        0.039111651480197906
      ],
      "type": "VEC3"
    },
    {
      "bufferView": 2,
      "byteOffset": 48,
      "componentType": 5126,
      "count": 4,
      "max": [
        -2.860112715552532e-07,
        -0.9888924956321716,
        0.14863239228725433
      ],
      "min": [
        -2.860112715552532e-07,
        -0.9888924956321716,
        0.14863239228725433
      ],
      "type": "VEC3"
    },
    {
      "bufferView": 1,
      "componentType": 5126,
      "count": 4,
      "max": [
        0.8607958555221558,
        0.9953830242156982
      ],
      "min": [
        0.14288651943206787,
        0.00461694598197937
      ],
      "type": "VEC2"
    },
    {
      "bufferView": 1,
      "byteOffset": 32,
      "componentType": 5126,
      "count": 4,
      "max": [
        0.8607958555221558,
        0.9953830242156982
      ],
      "min": [
        0.14288651943206787,
        0.00461694598197937
      ],
      "type": "VEC2"
    },
    {
      "bufferView": 0,
      "componentType": 5125,
      "count": 6,
      "type": "SCALAR"
    },
    {
      "bufferView": 2,
      "byteOffset": 96,
      "componentType": 5126,
      "count": 2359,
      "max": [
        0.1081584244966507,
        0.05912121385335922,
        0.26636821031570435
      ],
      "min": [
        -0.10873373597860336,
        -0.04316750913858414,
        -2.4318695068359375e-05
      ],
      "type": "VEC3"
    },
    {
      "bufferView": 2,
      "byteOffset": 28404,
      "componentType": 5126,
      "count": 2359,
      "max": [
        1.0,
        0.9937800168991089,
        0.9978700876235962
      ],
      "min": [
        -1.0,
        -0.9999789595603943,
        -0.9888938069343567
      ],
      "type": "VEC3"
    },
    {
      "bufferView": 3,
      "componentType": 5126,
      "count": 2359,
      "max": [
        1.0,
        0.997870147228241,
        0.999893307685852,
        1.0
      ],
      "min": [
        -1.0,
        -0.9988439679145813,
        -0.9999780654907227,
        -1.0
      ],
      "type": "VEC4"
    },
    {
      "bufferView": 1,
      "byteOffset": 64,
      "componentType": 5126,
      "count": 2359,
      "max": [
        0.997495174407959,
        0.9984562397003174
      ],
      "min": [
        0.001525204861536622,
        0.0015438700793311
      ],
      "type": "VEC2"
    },
    {
      "bufferView": 1,
      "byteOffset": 18936,
      "componentType": 5126,
      "count": 2359,
      "max": [
        0.997495174407959,
        0.9984562397003174
      ],
      "min": [
        0.001525204861536622,
        0.0015438700793311
      ],
      "type": "VEC2"
    },
    {
      "bufferView": 1,
      "byteOffset": 37808,
      "componentType": 5126,
      "count": 2359,
      "max": [
        0.997495174407959,
        0.9984562397003174
      ],
      "min": [
        0.001525204861536622,
        0.0015438700793311
      ],
      "type": "VEC2"
    },
    {
      "bufferView": 0,
      "byteOffset": 24,
      "componentType": 5125,
      "count": 8946,
      "type": "SCALAR"
    },
    {
      "bufferView": 2,
      "byteOffset": 56712,
      "componentType": 5126,
      "count": 4,
      "max": [
        0.06606272608041763,
        0.0033025576267391443,
        0.22441676259040833
      ],
      "min": [
        -0.06762039661407471,
        -0.024187954142689705,
        0.04151501506567001
      ],
      "type": "VEC3"
    },
    {
      "bufferView": 2,
      "byteOffset": 56760,
      "componentType": 5126,
      "count": 4,
      "max": [
        -2.730818664531398e-07,
        -0.9888925552368164,
        0.14863243699073792
      ],
      "min": [
        -2.730818664531398e-07,
        -0.9888925552368164,
        0.14863243699073792
      ],
      "type": "VEC3"
    },
    {
      "bufferView": 3,
      "byteOffset": 37744,
      "componentType": 5126,
      "count": 4,
      "max": [
        -1.0,
        2.759932158369338e-07,
        -1.0376371983866761e-09,
        1.0
      ],
      "min": [
        -1.0,
        2.58995896729175e-07,
        -1.1412528522214416e-07,
        1.0
      ],
      "type": "VEC4"
    },
    {
      "bufferView": 1,
      "byteOffset": 56680,
      "componentType": 5126,
      "count": 4,
      "max": [
        0.7146002650260925,
        0.3898892402648926
      ],
      "min": [
        0.4339107871055603,
        0.001543897669762373
      ],
      "type": "VEC2"
    },
    {
      "bufferView": 0,
      "byteOffset": 35808,
      "componentType": 5125,
      "count": 6,
      "type": "SCALAR"
    }
  ],
  "asset": {
    "extras": {
      "author": "mohamedhussien (https://sketchfab.com/mohamedhussien)",
      "license": "CC-BY-4.0 (http://creativecommons.org/licenses/by/4.0/)",
      "source": "https://sketchfab.com/3d-models/standing-picture-frame-02-4k-5f5168f317b945beac23105226ff7e54",
      "title": "Standing Picture Frame 02 4k"
    },
    "generator": "Sketchfab-12.56.0",
    "version": "2.0"
  },
  "bufferViews": [
    {
      "buffer": 0,
      "byteLength": 35832,
      "name": "floatBufferViews",
      "target": 34963
    },
    {
      "buffer": 0,
      "byteLength": 56712,
      "byteOffset": 35832,
      "byteStride": 8,
      "name": "floatBufferViews",
      "target": 34962
    },
    {
      "buffer": 0,
      "byteLength": 56808,
      "byteOffset": 92544,
      "byteStride": 12,
      "name": "floatBufferViews",
      "target": 34962
    },
    {
      "buffer": 0,
      "byteLength": 37808,
      "byteOffset": 149352,
      "byteStride": 16,
      "name": "floatBufferViews",
      "target": 34962
    }
  ],
  "buffers": [
    {
      "byteLength": 187160,
      "uri": "mini_2.bin"
    }
  ],
  "images": [
    {
      "uri": "textures/standing_picture_frame_02_baseColor.jpeg"
    },
    {
      "uri": "textures/standing_picture_frame_02_metallicRoughness.png"
    },
    {
      "uri": "textures/standing_picture_frame_02_normal.png"
    },
    {
      "uri": "textures/yoga_frame_2.jpg"
    },
    {
      "uri": "textures/standing_picture_frame_02_glass_metallicRoughness.png"
    },
    {
      "uri": "textures/standing_picture_frame_02_glass_normal.png"
    }
  ],
  "materials": [
    {
      "doubleSided": true,
      "name": "standing_picture_frame_02_artwork",
      "pbrMetallicRoughness": {
        "baseColorFactor": [
          0.8,
          0.8,
          0.8,
          1.0
        ],
        "metallicFactor": 0.0,
        "roughnessFactor": 0.8211145618000169
      }
    },
    {
      "doubleSided": true,
      "name": "standing_picture_frame_02",
      "normalTexture": {
        "index": 2
      },
      "pbrMetallicRoughness": {
        "baseColorTexture": {
          "index": 0
        },
        "metallicRoughnessTexture": {
          "index": 1
        }
      }
    },
    {
      "doubleSided": true,
      "name": "standing_picture_frame_02_glass",
      "normalTexture": {
        "index": 5
      },
      "occlusionTexture": {
        "index": 4
      },
      "pbrMetallicRoughness": {
        "baseColorTexture": {
          "index": 3
        },
        "metallicFactor": 0.0,
        "metallicRoughnessTexture": {
          "index": 4
        }
      }
    }
  ],
  "meshes": [
    {
      "name": "standing_picture_frame_02_standing_picture_frame_02_artwork_0",
      "primitives": [
        {
          "attributes": {
            "NORMAL": 1,
            "POSITION": 0,
            "TEXCOORD_0": 2,
            "TEXCOORD_1": 3
          },
          "indices": 4,
          "material": 0,
          "mode": 4
        }
      ]
    },
    {
      "name": "standing_picture_frame_02_standing_picture_frame_02_0",
      "primitives": [
        {
          "attributes": {
            "NORMAL": 6,
            "POSITION": 5,
            "TANGENT": 7,
            "TEXCOORD_0": 8,
            "TEXCOORD_1": 9,
            "TEXCOORD_2": 10
          },
          "indices": 11,
          "material": 1,
          "mode": 4
        }
      ]
    },
    {
      "name": "standing_picture_frame_02_standing_picture_frame_02_glass_0",
      "primitives": [
        {
          "attributes": {
            "NORMAL": 13,
            "POSITION": 12,
            "TANGENT": 14,
            "TEXCOORD_0": 15
          },
          "indices": 16,
          "material": 2,
          "mode": 4
        }
      ]
    }
  ],
  "nodes": [
    {
      "children": [
        1
      ],
      "matrix": [
        1.0,
        0.0,
        0.0,
        0.0,
        0.0,
        2.220446049250313e-16,
        -1.0,
        0.0,
        0.0,
        1.0,
        2.220446049250313e-16,
        0.0,
        0.0,
        0.0,
        0.0,
        1.0
      ],
      "name": "Sketchfab_model"
    },
    {
      "children": [
        2
      ],
      "matrix": [
        0.009999999776482582,
        0.0,
        0.0,
        0.0,
        0.0,
        0.0,
        0.009999999776482582,
        0.0,
        0.0,
        -0.009999999776482582,
        0.0,
        0.0,
        0.0,
        0.0,
        0.0,
        1.0
      ],
      "name": "standing_picture_frame_02_4k.fbx"
    },
    {
      "children": [
        3
      ],
      "name": "RootNode"
    },
    {
      "children": [
        4,
        5,
        6
      ],
      "matrix": [
        100.0,
        0.0,
        0.0,
        0.0,
        0.0,
        -1.629206793918314e-05,
        -99.99999999999868,
        0.0,
        0.0,
        99.99999999999868,
        -1.629206793918314e-05,
        0.0,
        0.0,
        0.0,
        0.0,
        1.0
      ],
      "name": "standing_picture_frame_02"
    },
    {
      "mesh": 0,
      "name": "standing_picture_frame_02_standing_picture_frame_02_artwork_0"
    },
    {
      "mesh": 1,
      "name": "standing_picture_frame_02_standing_picture_frame_02_0"
    },
    {
      "mesh": 2,
      "name": "standing_picture_frame_02_standing_picture_frame_02_glass_0"
    }
  ],
  "samplers": [
    {
      "magFilter": 9729,
      "minFilter": 9987,
      "wrapS": 10497,
      "wrapT": 10497
    }
  ],
  "scene": 0,
  "scenes": [
    {
      "name": "Sketchfab_Scene",
      "nodes": [
        0
      ]
    }
  ],
  "textures": [
    {
      "sampler": 0,
      "source": 0
    },
    {
      "sampler": 0,
      "source": 1
    },
    {
      "sampler": 0,
      "source": 2
    },
    {
      "sampler": 0,
      "source": 3
    },
    {
      "sampler": 0,
      "source": 4
    },
    {
      "sampler": 0,
      "source": 5
    }
  ]
}
